<svg width="174" height="174" fill="none" xmlns="http://www.w3.org/2000/svg"><path fill-rule="evenodd" clip-rule="evenodd" d="M120.083 63.205c1.747-1.747 2.086-4.382 1.025-6.475a5.71 5.71 0 0 0-1.025-1.407c-2.183-2.176-5.712-2.176-7.883 0-2.182 2.182-2.182 5.712 0 7.882a5.576 5.576 0 0 0 7.889 0h-.006Zm-18.251 28.803c16.557-13.7 31.135-34.21 43.716-61.517-7.829 8.687-15.127 16.563-21.9 23.616a9.109 9.109 0 0 1-1.067 11.602 9.104 9.104 0 0 1-11.496 1.133c-6.29 6.189-12.032 11.507-17.195 15.949-3.166 7.459-.525 10.535 7.948 9.217h-.006Zm51.664-70.097c-3.417 28.26-18.734 54.59-45.94 78.999 4.925-1.92 8.848-4.358 11.763-7.316-4.072 24.07-16.998 37.735-38.785 41.014 4.072-5.581 5.188-11.048 3.333-16.372-3.655 3.315-7.894 5.759-12.712 7.315 1.127-3.875.865-7.422-.793-10.654-.906 2.534-2.695 4.394-5.354 5.569-.924-2.528-2.212-4.603-3.863-6.207-1.598-1.651-3.667-2.939-6.207-3.863 1.174-2.659 3.035-4.448 5.569-5.354-3.232-1.658-6.78-1.92-10.655-.793 1.556-4.824 4-9.057 7.316-12.712-5.337-1.854-10.792-.739-16.373 3.333 3.28-21.786 16.945-34.724 41.015-38.784-2.957 2.916-5.39 6.839-7.316 11.764 24.41-27.218 50.74-42.523 79.002-45.939Z" fill="#fff"/><path d="m62.325 136.295-29.61 25.918-4.722-5.396L57.596 130.9l4.729 5.395Z" fill="url(#a)"/><path d="M58.843 120.609 23.38 151.642l-4.716-5.396 35.47-31.033 4.71 5.396Z" fill="url(#b)"/><path d="m44.223 114.486-29.61 25.917-4.721-5.395L39.5 109.102l4.722 5.384Z" fill="url(#c)"/><path fill-rule="evenodd" clip-rule="evenodd" d="M21.017 113.955A71.068 71.068 0 0 1 15.741 87c0-39.35 31.91-71.26 71.262-71.26 11.388 0 22.15 2.671 31.69 7.417a115.563 115.563 0 0 1 18.996-6.874C123.415 6.033 105.91 0 87.003 0 38.958 0 0 38.957 0 87c0 13.546 3.1 26.371 8.628 37.8l12.39-10.845Z" fill="url(#d)"/><path fill-rule="evenodd" clip-rule="evenodd" d="M87.003 158.266a71.153 71.153 0 0 1-29.544-6.391l-12.765 11.161C57.215 170.023 71.65 174 86.997 174 135.042 174 174 135.049 174 87c0-18.107-5.539-34.92-15.007-48.848-1.801 6.701-4.198 13.14-7.113 19.335 4.096 8.991 6.379 18.984 6.379 29.513 0 39.356-31.91 71.266-71.262 71.266h.006Z" fill="url(#e)"/><defs><linearGradient id="a" x1="45.159" y1="130.9" x2="45.159" y2="162.213" gradientUnits="userSpaceOnUse"><stop stop-color="#303FC6"/><stop offset="1" stop-color="#091E3A" stop-opacity="0"/></linearGradient><linearGradient id="b" x1="38.753" y1="115.213" x2="38.753" y2="151.642" gradientUnits="userSpaceOnUse"><stop stop-color="#303FC6"/><stop offset="1" stop-color="#091E3A" stop-opacity="0"/></linearGradient><linearGradient id="c" x1="27.057" y1="109.102" x2="27.057" y2="140.403" gradientUnits="userSpaceOnUse"><stop stop-color="#303FC6"/><stop offset="1" stop-color="#091E3A" stop-opacity="0"/></linearGradient><linearGradient id="d" x1="68.844" y1="0" x2="68.844" y2="124.8" gradientUnits="userSpaceOnUse"><stop stop-color="#303FC6"/><stop offset="1" stop-color="#091E3A" stop-opacity="0"/></linearGradient><linearGradient id="e" x1="109.347" y1="38.152" x2="109.347" y2="174" gradientUnits="userSpaceOnUse"><stop stop-color="#303FC6"/><stop offset="1" stop-color="#091E3A" stop-opacity="0"/></linearGradient></defs></svg>